<svg width="24" height="24" fill="none" xmlns="http://www.w3.org/2000/svg"><path d="M12.098 15.787A3.792 3.792 0 018.312 12a3.79 3.79 0 013.786-3.785A3.79 3.79 0 0115.884 12a3.79 3.79 0 01-3.786 3.787zm0-9.697A5.917 5.917 0 006.188 12a5.917 5.917 0 005.91 5.91c3.26 0 5.91-2.65 5.91-5.91a5.917 5.917 0 00-5.91-5.91z" fill="#fff"/><path d="M7.209 2.258A4.956 4.956 0 002.258 7.21v9.58a4.956 4.956 0 004.951 4.952h9.581c2.73 0 4.952-2.22 4.952-4.951V7.21a4.957 4.957 0 00-4.952-4.952H7.21zM16.79 24H7.21A7.218 7.218 0 010 16.79V7.21C0 3.234 3.234 0 7.209 0h9.581C20.765 0 24 3.234 24 7.21v9.58c0 3.976-3.235 7.21-7.21 7.21z" fill="#fff"/><path fill-rule="evenodd" clip-rule="evenodd" d="M7.209 2.258A4.956 4.956 0 002.258 7.21v9.58a4.956 4.956 0 004.951 4.952h9.581c2.73 0 4.952-2.22 4.952-4.951V7.21a4.957 4.957 0 00-4.952-4.952H7.21zm9.738 3.434a1.407 1.407 0 112.814 0 1.407 1.407 0 01-2.814 0zM6.187 12a5.917 5.917 0 015.911-5.91c3.26 0 5.91 2.651 5.91 5.91a5.917 5.917 0 01-5.91 5.91A5.917 5.917 0 016.188 12z" fill="#fff"/></svg>