<svg width="40" height="24" fill="none" xmlns="http://www.w3.org/2000/svg"><path fill-rule="evenodd" clip-rule="evenodd" d="M39.079 1.61c.281-.947 0-1.61-1.313-1.61h-4.377c-1.125 0-1.626.6-1.907 1.263 0 0-2.22 5.495-5.377 9.032-1.032 1.042-1.47 1.358-2.032 1.358-.282 0-.688-.316-.688-1.264V1.611C23.385.474 23.072 0 22.135 0h-6.879c-.687 0-1.125.537-1.125 1.01 0 1.074 1.563 1.327 1.75 4.295v6.505c0 1.422-.25 1.674-.812 1.674-1.47 0-5.096-5.495-7.222-11.81C7.41.505 7.003 0 5.877 0H1.501C.25 0 0 .6 0 1.263c0 1.169 1.47 6.98 6.91 14.653C10.535 21.158 15.631 24 20.258 24c2.782 0 3.126-.632 3.126-1.705v-3.98c0-1.262.25-1.515 1.157-1.515.656 0 1.75.316 4.345 2.842 2.97 3 3.47 4.358 5.127 4.358h4.377c1.25 0 1.876-.632 1.5-1.863-.405-1.232-1.812-3.032-3.688-5.18-1.032-1.23-2.564-2.525-3.002-3.189-.656-.852-.468-1.231 0-1.958 0-.031 5.347-7.61 5.878-10.2z" fill="#fff"/></svg>